<svg width="69" height="72" viewBox="0 0 69 72" fill="none" xmlns="http://www.w3.org/2000/svg">
<path d="M40.8313 67.7385C34.9772 70.8585 29.1773 69.0385 27.0091 67.7385C27.6596 60.8052 18.6074 44.6274 14 37.4052L20.5046 34.3719C20.7935 40.8402 25.9432 50.2627 28.7037 53.4991C29.1288 53.9974 29.8509 53.812 30.0006 53.1744C31.4867 46.8484 28.7077 33.0821 27.8222 29.1719H41.1661C38.1061 38.8208 36.9689 49.076 37.0456 54.1551C37.0598 55.095 38.0905 55.2377 38.5204 54.4019C41.8479 47.9321 49.6905 35.4457 52.6209 33.0719L55.4666 38.7052C43.7584 44.9452 40.8313 60.6608 40.8313 67.7385Z" fill="#C2E684"/>
<path fill-rule="evenodd" clip-rule="evenodd" d="M25.9807 69.4538C25.3204 69.058 24.946 68.3182 25.0179 67.5517C25.1416 66.2328 24.8022 64.238 23.993 61.6963C23.2011 59.2086 22.0268 56.3993 20.6692 53.5373C17.9552 47.8154 14.5839 42.0392 12.3139 38.4809C12.004 37.9951 11.9187 37.3994 12.0797 36.8462C12.2408 36.293 12.6326 35.8361 13.1547 35.5926L19.6593 32.5593C20.2643 32.2771 20.9703 32.3155 21.5412 32.6615C22.1122 33.0076 22.4728 33.6157 22.5026 34.2826C22.6294 37.1215 23.8565 40.8087 25.489 44.3003C26.4344 46.3221 27.4692 48.1809 28.4104 49.6644C28.5065 47.0564 28.248 43.8054 27.8178 40.5275C27.2086 35.8864 26.3058 31.531 25.8716 29.6136C25.7373 29.0206 25.8801 28.3986 26.2596 27.9236C26.6391 27.4485 27.2142 27.1719 27.8222 27.1719H41.1661C41.8039 27.1719 42.4034 27.476 42.78 27.9906C43.1567 28.5052 43.2653 29.1686 43.0726 29.7765C40.9259 36.5453 39.7506 43.6178 39.2835 48.8713C40.7243 46.3802 42.3941 43.6516 44.0418 41.1122C45.4275 38.9768 46.8125 36.9521 48.0471 35.2994C49.24 33.7024 50.4122 32.2872 51.3619 31.5178C51.8318 31.1372 52.4486 30.9896 53.0399 31.1163C53.6312 31.243 54.1334 31.6304 54.406 32.1701L57.2518 37.8034C57.7421 38.7741 57.367 39.9587 56.4073 40.4702C51.1219 43.2871 47.7147 48.3016 45.6202 53.6384C43.5265 58.9731 42.8313 64.4201 42.8313 67.7385C42.8313 68.4774 42.424 69.156 41.772 69.5035C35.1274 73.0448 28.5639 71.0027 25.9807 69.4538ZM39.0429 53.4057C38.9987 53.4884 38.9551 53.5705 38.9121 53.6518C38.8259 53.8145 38.7421 53.9742 38.6606 54.1307C38.6131 54.2222 38.5663 54.3126 38.5204 54.4019C38.0905 55.2377 37.0598 55.095 37.0456 54.1551C37.0431 53.9894 37.0419 53.8181 37.042 53.6415C37.0421 53.4847 37.0432 53.3237 37.0454 53.1587C37.0466 53.0721 37.048 52.9843 37.0498 52.8955C37.1471 47.906 38.1702 39.463 40.5611 31.1719C40.7538 30.5036 40.9554 29.8363 41.1661 29.1719H27.8222C27.938 29.683 28.0861 30.3626 28.2528 31.1719C29.2971 36.242 31.0713 46.4054 30.1936 52.1637C30.1935 52.1643 30.1934 52.1648 30.1933 52.1653C30.1896 52.1897 30.1858 52.214 30.182 52.2382C30.1305 52.5654 30.0703 52.8781 30.0006 53.1744C29.8509 53.812 29.1288 53.9974 28.7037 53.4991C28.5089 53.2707 28.3022 53.0115 28.0861 52.7247C28.0775 52.7133 28.0689 52.7018 28.0603 52.6903C28.0602 52.6902 28.0604 52.6905 28.0603 52.6903C25.5319 49.3199 21.7456 42.2138 20.7429 36.4675C20.6166 35.744 20.5345 35.0421 20.5046 34.3719L14 37.4052C14.3346 37.9297 14.6927 38.5015 15.0688 39.1136C19.8711 46.9286 27.6124 61.3088 27.0091 67.7385C29.1773 69.0385 34.9772 70.8585 40.8313 67.7385C40.8313 60.6608 43.7584 44.9452 55.4666 38.7052L52.6209 33.0719C52.2158 33.4 51.7168 33.9215 51.1489 34.5935C47.8105 38.544 42.0891 47.6993 39.0429 53.4057Z" fill="#78A32D"/>
<path fill-rule="evenodd" clip-rule="evenodd" d="M27.0339 66.5852C29.8295 67.5889 34.4063 68.1957 39.0166 65.7385C39.0166 58.6608 41.9437 42.9452 53.6519 36.7052L52.0711 33.5759C52.2692 33.3768 52.4531 33.2078 52.6208 33.0719L55.4665 38.7052C43.7583 44.9452 40.8313 60.6608 40.8313 67.7385C34.9772 70.8585 29.1773 69.0385 27.0091 67.7385C27.0429 67.3782 27.0505 66.9929 27.0339 66.5852ZM19.0393 35.0552C20.2914 41.2106 24.4913 48.6881 26.889 51.4991C27.0385 51.6744 27.2248 51.7651 27.41 51.7812C24.5841 47.6574 20.7526 39.9257 20.5045 34.3719L19.0393 35.0552ZM37.0896 51.6664C37.3347 46.1458 38.5451 37.4364 41.1661 29.1719H38.7464C36.1405 38.2086 35.1594 47.4257 35.2309 52.1551C35.2451 53.095 36.2757 53.2377 36.7057 52.4019C36.8277 52.1645 36.9558 51.9191 37.0896 51.6664Z" fill="#A2CB5B"/>
<path d="M29.6142 58.993C30.1513 60.9007 29.9833 62.6403 29.2389 62.8784C28.4945 63.1165 27.4556 61.763 26.9185 59.8552C26.3814 57.9475 26.5495 56.208 27.2939 55.9698C28.0383 55.7317 29.0772 57.0852 29.6142 58.993Z" fill="#E1FBB5"/>
<path d="M14.1333 31.1385C14.1333 34.489 11.4172 37.2051 8.0667 37.2051C4.7161 37.2051 2 34.489 2 31.1385C2 27.7879 4.7161 25.0718 8.0667 25.0718C11.4172 25.0718 14.1333 27.7879 14.1333 31.1385Z" fill="#2E9422"/>
<path d="M22.8 21.6051C22.8 26.3916 18.9198 30.2718 14.1333 30.2718C9.34691 30.2718 5.46671 26.3916 5.46671 21.6051C5.46671 16.8187 9.34691 12.9385 14.1333 12.9385C18.9198 12.9385 22.8 16.8187 22.8 21.6051Z" fill="#2E9422"/>
<path d="M38.4 29.4051C38.4 34.1916 34.5198 38.0718 29.7333 38.0718C24.9469 38.0718 21.0667 34.1916 21.0667 29.4051C21.0667 24.6187 24.9469 20.7385 29.7333 20.7385C34.5198 20.7385 38.4 24.6187 38.4 29.4051Z" fill="#2E9422"/>
<path d="M53.1333 27.6718C53.1333 32.4583 49.2531 36.3385 44.4667 36.3385C39.6802 36.3385 35.8 32.4583 35.8 27.6718C35.8 22.8853 39.6802 19.0051 44.4667 19.0051C49.2531 19.0051 53.1333 22.8853 53.1333 27.6718Z" fill="#2E9422"/>
<path d="M67 30.7052C67 35.2524 63.3138 38.9386 58.7667 38.9386C54.2195 38.9386 50.5333 35.2524 50.5333 30.7052C50.5333 26.1581 54.2195 22.4719 58.7667 22.4719C63.3138 22.4719 67 26.1581 67 30.7052Z" fill="#2E9422"/>
<path d="M60.0667 21.1718C60.0667 26.6762 55.6044 31.1385 50.1 31.1385C44.5956 31.1385 40.1333 26.6762 40.1333 21.1718C40.1333 15.6674 44.5956 11.2051 50.1 11.2051C55.6044 11.2051 60.0667 15.6674 60.0667 21.1718Z" fill="#2E9422"/>
<path d="M49.6667 13.3719C49.6667 19.355 44.8164 24.2052 38.8333 24.2052C32.8502 24.2052 28 19.355 28 13.3719C28 7.38877 32.8502 2.53857 38.8333 2.53857C44.8164 2.53857 49.6667 7.38877 49.6667 13.3719Z" fill="#2E9422"/>
<path d="M36.6667 15.972C36.6667 21.9551 31.8164 26.8053 25.8333 26.8053C19.8503 26.8053 15 21.9551 15 15.972C15 9.98887 19.8503 5.13867 25.8333 5.13867C31.8164 5.13867 36.6667 9.98887 36.6667 15.972Z" fill="#2E9422"/>
<path d="M25.4 27.6718C25.4 32.4583 21.5198 36.3385 16.7333 36.3385C11.9469 36.3385 8.0667 32.4583 8.0667 27.6718C8.0667 22.8853 11.9469 19.0051 16.7333 19.0051C21.5198 19.0051 25.4 22.8853 25.4 27.6718Z" fill="#2E9422"/>
<path fill-rule="evenodd" clip-rule="evenodd" d="M4.514 26.2204C2.9909 27.3225 2 29.1148 2 31.1386C2 34.4891 4.7161 37.2052 8.0667 37.2052C9.0563 37.2052 9.9906 36.9683 10.8159 36.548C11.4614 36.2193 12.0403 35.7784 12.5268 35.251C13.1344 35.589 13.787 35.8561 14.4733 36.0409C15.1938 36.235 15.9515 36.3386 16.7333 36.3386C18.221 36.3386 19.6211 35.9638 20.8444 35.3034C21.4355 34.9843 21.9853 34.5985 22.4837 34.1562C22.8516 34.7164 23.2828 35.2315 23.7669 35.6912C25.3209 37.1666 27.4214 38.0719 29.7333 38.0719C32.4843 38.0719 34.9359 36.7902 36.5235 34.7914C36.9599 34.242 37.3309 33.6385 37.625 32.9926C38.0587 33.5494 38.5588 34.0519 39.1134 34.4881C40.5872 35.6472 42.4462 36.3386 44.4667 36.3386C46.2946 36.3386 47.9904 35.7727 49.3883 34.8065C49.9757 34.4005 50.5106 33.9238 50.9806 33.3887C51.2147 34.0683 51.5353 34.7076 51.9293 35.2934C53.4075 37.492 55.9182 38.9386 58.7667 38.9386C63.3138 38.9386 67 35.2524 67 30.7052C67 27.2725 64.8992 24.3303 61.913 23.0945C61.2995 22.8406 60.6486 22.6587 59.9709 22.5593C60.034 22.1059 60.0667 21.6427 60.0667 21.1719C60.0667 20.9635 60.0603 20.7566 60.0477 20.5513C59.756 15.8041 56.1413 11.9556 51.5008 11.3029C51.0431 11.2385 50.5754 11.2052 50.1 11.2052C49.883 11.2052 49.6677 11.2122 49.4541 11.2258C49.318 10.5484 49.1186 9.89377 48.8625 9.26837C47.2453 5.31997 43.3641 2.53857 38.8333 2.53857C36.3274 2.53857 34.0202 3.38937 32.1848 4.81797C31.6288 5.25077 31.1161 5.73647 30.6544 6.26777C30.0293 5.95657 29.37 5.70407 28.6836 5.51737C27.7754 5.27037 26.8198 5.13857 25.8333 5.13857C21.5917 5.13857 17.9194 7.57627 16.141 11.1272C15.8382 11.7317 15.5904 12.3685 15.4039 13.0311C14.9892 12.9701 14.565 12.9386 14.1333 12.9386C13.8701 12.9386 13.6095 12.9503 13.3522 12.9733C8.9317 13.3682 5.4667 17.0821 5.4667 21.6052C5.4667 22.2336 5.5335 22.8464 5.6606 23.4368C5.8032 24.0997 6.0216 24.7343 6.3063 25.3313C5.656 25.5281 5.0518 25.8312 4.514 26.2204ZM3.8067 24.2872C1.5211 25.7113 0 28.2473 0 31.1386C0 35.5937 3.6116 39.2052 8.0667 39.2052C9.8672 39.2052 11.5299 38.6153 12.8722 37.6183C14.0695 38.0834 15.3716 38.3386 16.7333 38.3386C18.6994 38.3386 20.5412 37.8067 22.1227 36.8789C24.0581 38.8496 26.753 40.0719 29.7333 40.0719C33.0648 40.0719 36.0395 38.5447 37.9955 36.1521C39.7903 37.5238 42.0333 38.3386 44.4667 38.3386C46.6499 38.3386 48.68 37.6826 50.3705 36.5571C52.2201 39.2059 55.291 40.9386 58.7667 40.9386C64.4184 40.9386 69 36.357 69 30.7052C69 26.2078 66.0987 22.388 62.0657 21.0153C61.9856 14.7756 57.13 9.68727 50.9862 9.23757C49.2655 4.17827 44.4745 0.538574 38.8333 0.538574C35.4996 0.538574 32.4628 1.80967 30.1811 3.89377C28.8234 3.40497 27.3595 3.13857 25.8333 3.13857C20.532 3.13857 15.9815 6.35297 14.0244 10.9391C8.1836 10.9975 3.4667 15.7505 3.4667 21.6052C3.4667 22.5316 3.5847 23.4303 3.8067 24.2872ZM36.6236 23.9797C36.5704 23.9687 36.5173 23.9572 36.4643 23.9454C36.5017 23.9914 36.5386 24.0378 36.575 24.0845C36.591 24.0495 36.6072 24.0145 36.6236 23.9797Z" fill="#1A5B22"/>
<path d="M30.8216 9.81307C32.0472 12.2468 30.0814 15.7101 26.4308 17.5486C22.7802 19.387 18.8272 18.9045 17.6015 16.4707C16.3759 14.037 18.3417 10.5737 21.9923 8.73517C25.6429 6.89677 29.5959 7.37927 30.8216 9.81307Z" fill="#45BD36"/>
<path fill-rule="evenodd" clip-rule="evenodd" d="M24.2417 11.1951C24.758 12.1716 24.385 13.3817 23.4086 13.898C22.8392 14.1991 22.3941 14.578 22.0456 15.0345C21.3754 15.9126 20.1203 16.081 19.2423 15.4108C18.3643 14.7406 18.1958 13.4855 18.866 12.6075C19.5825 11.6689 20.4826 10.9204 21.5387 10.362C22.5152 9.84565 23.7253 10.2186 24.2417 11.1951Z" fill="white"/>
<path d="M12 20.5386C12 21.0909 11.5523 21.5386 11 21.5386C10.4477 21.5386 10 21.0909 10 20.5386C10 19.9863 10.4477 19.5386 11 19.5386C11.5523 19.5386 12 19.9863 12 20.5386Z" fill="#3DB52F"/>
<path d="M16 17.5386C16 18.0909 15.5523 18.5386 15 18.5386C14.4477 18.5386 14 18.0909 14 17.5386C14 16.9863 14.4477 16.5386 15 16.5386C15.5523 16.5386 16 16.9863 16 17.5386Z" fill="#3DB52F"/>
<path d="M18 23.5386C18 24.0909 17.5523 24.5386 17 24.5386C16.4477 24.5386 16 24.0909 16 23.5386C16 22.9863 16.4477 22.5386 17 22.5386C17.5523 22.5386 18 22.9863 18 23.5386Z" fill="#3DB52F"/>
<path d="M13 25.5386C13 26.0909 12.5523 26.5386 12 26.5386C11.4477 26.5386 11 26.0909 11 25.5386C11 24.9863 11.4477 24.5386 12 24.5386C12.5523 24.5386 13 24.9863 13 25.5386Z" fill="#3DB52F"/>
<path d="M9 30.5386C9 31.0909 8.5523 31.5386 8 31.5386C7.4477 31.5386 7 31.0909 7 30.5386C7 29.9863 7.4477 29.5386 8 29.5386C8.5523 29.5386 9 29.9863 9 30.5386Z" fill="#3DB52F"/>
<path d="M14 30.5386C14 31.0909 13.5523 31.5386 13 31.5386C12.4477 31.5386 12 31.0909 12 30.5386C12 29.9863 12.4477 29.5386 13 29.5386C13.5523 29.5386 14 29.9863 14 30.5386Z" fill="#3DB52F"/>
<path d="M19 28.5386C19 29.0909 18.5523 29.5386 18 29.5386C17.4477 29.5386 17 29.0909 17 28.5386C17 27.9863 17.4477 27.5386 18 27.5386C18.5523 27.5386 19 27.9863 19 28.5386Z" fill="#3DB52F"/>
<path d="M23 23.5386C23 24.0909 22.5523 24.5386 22 24.5386C21.4477 24.5386 21 24.0909 21 23.5386C21 22.9863 21.4477 22.5386 22 22.5386C22.5523 22.5386 23 22.9863 23 23.5386Z" fill="#3DB52F"/>
<path d="M30 20.5386C30 21.0909 29.5523 21.5386 29 21.5386C28.4477 21.5386 28 21.0909 28 20.5386C28 19.9863 28.4477 19.5386 29 19.5386C29.5523 19.5386 30 19.9863 30 20.5386Z" fill="#3DB52F"/>
<path d="M27 26.5386C27 27.0909 26.5523 27.5386 26 27.5386C25.4477 27.5386 25 27.0909 25 26.5386C25 25.9863 25.4477 25.5386 26 25.5386C26.5523 25.5386 27 25.9863 27 26.5386Z" fill="#3DB52F"/>
<path d="M23 30.5386C23 31.0909 22.5523 31.5386 22 31.5386C21.4477 31.5386 21 31.0909 21 30.5386C21 29.9863 21.4477 29.5386 22 29.5386C22.5523 29.5386 23 29.9863 23 30.5386Z" fill="#3DB52F"/>
<path d="M30 33.5386C30 34.0909 29.5523 34.5386 29 34.5386C28.4477 34.5386 28 34.0909 28 33.5386C28 32.9863 28.4477 32.5386 29 32.5386C29.5523 32.5386 30 32.9863 30 33.5386Z" fill="#3DB52F"/>
<path d="M34 29.5386C34 30.0909 33.5523 30.5386 33 30.5386C32.4477 30.5386 32 30.0909 32 29.5386C32 28.9863 32.4477 28.5386 33 28.5386C33.5523 28.5386 34 28.9863 34 29.5386Z" fill="#3DB52F"/>
<path d="M33 25.5386C33 26.0909 32.5523 26.5386 32 26.5386C31.4477 26.5386 31 26.0909 31 25.5386C31 24.9863 31.4477 24.5386 32 24.5386C32.5523 24.5386 33 24.9863 33 25.5386Z" fill="#3DB52F"/>
<path d="M40 28.5386C40 29.0909 39.5523 29.5386 39 29.5386C38.4477 29.5386 38 29.0909 38 28.5386C38 27.9863 38.4477 27.5386 39 27.5386C39.5523 27.5386 40 27.9863 40 28.5386Z" fill="#3DB52F"/>
<path d="M37 23.5386C37 24.0909 36.5523 24.5386 36 24.5386C35.4477 24.5386 35 24.0909 35 23.5386C35 22.9863 35.4477 22.5386 36 22.5386C36.5523 22.5386 37 22.9863 37 23.5386Z" fill="#3DB52F"/>
<path d="M35 17.5386C35 18.0909 34.5523 18.5386 34 18.5386C33.4477 18.5386 33 18.0909 33 17.5386C33 16.9863 33.4477 16.5386 34 16.5386C34.5523 16.5386 35 16.9863 35 17.5386Z" fill="#3DB52F"/>
<path d="M35 12.5386C35 13.0909 34.5523 13.5386 34 13.5386C33.4477 13.5386 33 13.0909 33 12.5386C33 11.9863 33.4477 11.5386 34 11.5386C34.5523 11.5386 35 11.9863 35 12.5386Z" fill="#3DB52F"/>
<path d="M37 5.53857C37 6.09087 36.5523 6.53857 36 6.53857C35.4477 6.53857 35 6.09087 35 5.53857C35 4.98627 35.4477 4.53857 36 4.53857C36.5523 4.53857 37 4.98627 37 5.53857Z" fill="#3DB52F"/>
<path d="M43 5.53857C43 6.09087 42.5523 6.53857 42 6.53857C41.4477 6.53857 41 6.09087 41 5.53857C41 4.98627 41.4477 4.53857 42 4.53857C42.5523 4.53857 43 4.98627 43 5.53857Z" fill="#3DB52F"/>
<path d="M40 9.53857C40 10.0909 39.5523 10.5386 39 10.5386C38.4477 10.5386 38 10.0909 38 9.53857C38 8.98627 38.4477 8.53857 39 8.53857C39.5523 8.53857 40 8.98627 40 9.53857Z" fill="#3DB52F"/>
<path d="M46 9.53857C46 10.0909 45.5523 10.5386 45 10.5386C44.4477 10.5386 44 10.0909 44 9.53857C44 8.98627 44.4477 8.53857 45 8.53857C45.5523 8.53857 46 8.98627 46 9.53857Z" fill="#3DB52F"/>
<path d="M41 14.5386C41 15.0909 40.5523 15.5386 40 15.5386C39.4477 15.5386 39 15.0909 39 14.5386C39 13.9863 39.4477 13.5386 40 13.5386C40.5523 13.5386 41 13.9863 41 14.5386Z" fill="#3DB52F"/>
<path d="M46 14.5386C46 15.0909 45.5523 15.5386 45 15.5386C44.4477 15.5386 44 15.0909 44 14.5386C44 13.9863 44.4477 13.5386 45 13.5386C45.5523 13.5386 46 13.9863 46 14.5386Z" fill="#3DB52F"/>
<path d="M46 21.5386C46 22.0909 45.5523 22.5386 45 22.5386C44.4477 22.5386 44 22.0909 44 21.5386C44 20.9863 44.4477 20.5386 45 20.5386C45.5523 20.5386 46 20.9863 46 21.5386Z" fill="#3DB52F"/>
<path d="M49 17.5386C49 18.0909 48.5523 18.5386 48 18.5386C47.4477 18.5386 47 18.0909 47 17.5386C47 16.9863 47.4477 16.5386 48 16.5386C48.5523 16.5386 49 16.9863 49 17.5386Z" fill="#3DB52F"/>
<path d="M53 14.5386C53 15.0909 52.5523 15.5386 52 15.5386C51.4477 15.5386 51 15.0909 51 14.5386C51 13.9863 51.4477 13.5386 52 13.5386C52.5523 13.5386 53 13.9863 53 14.5386Z" fill="#3DB52F"/>
<path d="M58 19.5386C58 20.0909 57.5523 20.5386 57 20.5386C56.4477 20.5386 56 20.0909 56 19.5386C56 18.9863 56.4477 18.5386 57 18.5386C57.5523 18.5386 58 18.9863 58 19.5386Z" fill="#3DB52F"/>
<path d="M53 20.5386C53 21.0909 52.5523 21.5386 52 21.5386C51.4477 21.5386 51 21.0909 51 20.5386C51 19.9863 51.4477 19.5386 52 19.5386C52.5523 19.5386 53 19.9863 53 20.5386Z" fill="#3DB52F"/>
<path d="M45 26.5386C45 27.0909 44.5523 27.5386 44 27.5386C43.4477 27.5386 43 27.0909 43 26.5386C43 25.9863 43.4477 25.5386 44 25.5386C44.5523 25.5386 45 25.9863 45 26.5386Z" fill="#3DB52F"/>
<path d="M50 31.5386C50 32.0909 49.5523 32.5386 49 32.5386C48.4477 32.5386 48 32.0909 48 31.5386C48 30.9863 48.4477 30.5386 49 30.5386C49.5523 30.5386 50 30.9863 50 31.5386Z" fill="#3DB52F"/>
<path d="M52 25.5386C52 26.0909 51.5523 26.5386 51 26.5386C50.4477 26.5386 50 26.0909 50 25.5386C50 24.9863 50.4477 24.5386 51 24.5386C51.5523 24.5386 52 24.9863 52 25.5386Z" fill="#3DB52F"/>
<path d="M58 23.5386C58 24.0909 57.5523 24.5386 57 24.5386C56.4477 24.5386 56 24.0909 56 23.5386C56 22.9863 56.4477 22.5386 57 22.5386C57.5523 22.5386 58 22.9863 58 23.5386Z" fill="#3DB52F"/>
<path d="M63 25.5386C63 26.0909 62.5523 26.5386 62 26.5386C61.4477 26.5386 61 26.0909 61 25.5386C61 24.9863 61.4477 24.5386 62 24.5386C62.5523 24.5386 63 24.9863 63 25.5386Z" fill="#3DB52F"/>
<path d="M65 31.5386C65 32.0909 64.5523 32.5386 64 32.5386C63.4477 32.5386 63 32.0909 63 31.5386C63 30.9863 63.4477 30.5386 64 30.5386C64.5523 30.5386 65 30.9863 65 31.5386Z" fill="#3DB52F"/>
<path d="M58 35.5386C58 36.0909 57.5523 36.5386 57 36.5386C56.4477 36.5386 56 36.0909 56 35.5386C56 34.9863 56.4477 34.5386 57 34.5386C57.5523 34.5386 58 34.9863 58 35.5386Z" fill="#3DB52F"/>
<path d="M60 29.5386C60 30.0909 59.5523 30.5386 59 30.5386C58.4477 30.5386 58 30.0909 58 29.5386C58 28.9863 58.4477 28.5386 59 28.5386C59.5523 28.5386 60 28.9863 60 29.5386Z" fill="#3DB52F"/>
<path d="M55 30.5386C55 31.0909 54.5523 31.5386 54 31.5386C53.4477 31.5386 53 31.0909 53 30.5386C53 29.9863 53.4477 29.5386 54 29.5386C54.5523 29.5386 55 29.9863 55 30.5386Z" fill="#3DB52F"/>
<path d="M44 31.5386C44 32.0909 43.5523 32.5386 43 32.5386C42.4477 32.5386 42 32.0909 42 31.5386C42 30.9863 42.4477 30.5386 43 30.5386C43.5523 30.5386 44 30.9863 44 31.5386Z" fill="#3DB52F"/>
<path d="M41 19.5386C41 20.0909 40.5523 20.5386 40 20.5386C39.4477 20.5386 39 20.0909 39 19.5386C39 18.9863 39.4477 18.5386 40 18.5386C40.5523 18.5386 41 18.9863 41 19.5386Z" fill="#3DB52F"/>
<path d="M51.9722 18.714C51.3322 19.5827 50.109 19.7681 49.2403 19.1281C48.3715 18.488 48.1861 17.2649 48.8262 16.3962C49.4662 15.5274 50.6894 15.342 51.5581 15.9821C52.4269 16.6221 52.6123 17.8452 51.9722 18.714Z" fill="#1E7614"/>
<path d="M55.0733 25.1571C54.4332 26.0258 53.2101 26.2112 52.3414 25.5712C51.4726 24.9311 51.2872 23.708 51.9273 22.8393C52.5673 21.9705 53.7904 21.7851 54.6592 22.4252C55.5279 23.0652 55.7133 24.2883 55.0733 25.1571Z" fill="#1E7614"/>
<path d="M57.401 17.548C56.9209 18.1996 56.0036 18.3386 55.352 17.8586C54.7005 17.3785 54.5614 16.4612 55.0415 15.8096C55.5215 15.1581 56.4388 15.019 57.0904 15.4991C57.742 15.9791 57.881 16.8964 57.401 17.548Z" fill="#1E7614"/>
<path d="M65.2289 32.4567C64.7488 33.1083 63.8315 33.2473 63.1799 32.7673C62.5284 32.2872 62.3893 31.3699 62.8693 30.7183C63.3494 30.0668 64.2667 29.9277 64.9183 30.4078C65.5698 30.8878 65.7089 31.8051 65.2289 32.4567Z" fill="#1E7614"/>
<path d="M51.3052 30.4295C50.6652 31.2983 49.4421 31.4837 48.5733 30.8436C47.7046 30.2036 47.5192 28.9805 48.1592 28.1117C48.7993 27.243 50.0224 27.0576 50.8911 27.6976C51.7599 28.3377 51.9453 29.5608 51.3052 30.4295Z" fill="#1E7614"/>
<path d="M49.2691 23.8727C48.629 24.7414 47.4059 24.9268 46.5372 24.2868C45.6684 23.6467 45.483 22.4236 46.1231 21.5548C46.7631 20.6861 47.9862 20.5007 48.855 21.1407C49.7237 21.7808 49.9091 23.0039 49.2691 23.8727Z" fill="#1E7614"/>
<path d="M44.3052 33.4295C43.6652 34.2983 42.4421 34.4837 41.5733 33.8436C40.7046 33.2036 40.5192 31.9805 41.1592 31.1117C41.7993 30.243 43.0224 30.0576 43.8911 30.6976C44.7599 31.3377 44.9453 32.5608 44.3052 33.4295Z" fill="#1E7614"/>
<path d="M43.1014 25.9752C42.4613 26.844 41.2382 27.0293 40.3694 26.3893C39.5007 25.7493 39.3153 24.5261 39.9553 23.6574C40.5954 22.7886 41.8185 22.6032 42.6873 23.2433C43.556 23.8833 43.7414 25.1065 43.1014 25.9752Z" fill="#1E7614"/>
<path d="M61.305 35.4295C60.6649 36.2983 59.4418 36.4837 58.5731 35.8436C57.7043 35.2036 57.5189 33.9805 58.159 33.1117C58.799 32.243 60.0221 32.0576 60.8909 32.6976C61.7596 33.3377 61.945 34.5608 61.305 35.4295Z" fill="#1E7614"/>
<path d="M37.2289 31.4569C36.7488 32.1085 35.8315 32.2476 35.1799 31.7675C34.5284 31.2875 34.3893 30.3701 34.8693 29.7186C35.3494 29.067 36.2667 28.928 36.9183 29.408C37.5698 29.888 37.7089 30.8054 37.2289 31.4569Z" fill="#1E7614"/>
</svg>
