<svg width="374" height="192" viewBox="0 0 374 192" fill="none" xmlns="http://www.w3.org/2000/svg">
<path d="M231.724 127.523C240.948 156.248 223.522 177.235 211.988 186.349C179.724 184.161 165.499 173.566 164.849 167.27C173.432 144.162 209.158 127.273 231.724 127.523Z" fill="#599B04"/>
<path fill-rule="evenodd" clip-rule="evenodd" d="M213.641 191.681L211.636 191.545C195.031 190.419 182.718 187.111 174.296 183.039C170.092 181.006 166.726 178.719 164.284 176.298C161.93 173.964 160.005 171.066 159.668 167.805L159.543 166.596L159.966 165.457C164.881 152.224 177.203 141.431 190.526 134.077C203.921 126.684 219.379 122.178 231.782 122.315L235.536 122.356L236.684 125.931C246.896 157.734 227.436 180.78 215.218 190.435L213.641 191.681ZM211.989 186.349C223.522 177.235 240.948 156.248 231.724 127.523C209.158 127.273 173.432 144.162 164.849 167.27C165.499 173.566 179.724 184.161 211.989 186.349Z" fill="#326D03"/>
<path d="M200.791 142.075C202.419 167.27 207.953 179.673 211.989 186.349C179.725 184.161 165.499 173.566 164.849 167.27C173.432 144.162 178.225 141.825 200.791 142.075Z" fill="#68B00B"/>
<path d="M217.506 142.875C216.98 162.114 201.957 170.787 193.03 173.669C173.95 165.173 167.588 155.665 168.534 151.754C178.652 139.842 203.889 137.698 217.506 142.875Z" fill="#9FD336"/>
<path fill-rule="evenodd" clip-rule="evenodd" d="M192.732 179.239L190.911 178.428C180.945 173.99 173.986 169.154 169.555 164.642C167.346 162.392 165.661 160.117 164.59 157.902C163.576 155.806 162.832 153.171 163.471 150.53L163.762 149.326L164.564 148.383C170.803 141.037 181.114 137.215 190.942 135.755C200.865 134.281 211.517 135.027 219.357 138.007L222.813 139.321L222.712 143.018C222.096 165.552 204.388 175.475 194.63 178.626L192.732 179.239ZM193.029 173.67C201.956 170.787 216.98 162.114 217.506 142.875C203.888 137.698 178.651 139.842 168.533 151.754C167.587 155.666 173.95 165.173 193.029 173.67Z" fill="#779A06"/>
<path d="M179.27 160.942C171.015 178.042 153.989 179.771 144.79 178.754C131.058 163.392 129.177 152.263 131.611 149.126C145.533 142.499 169.11 150.777 179.27 160.942Z" fill="#70B715"/>
<path fill-rule="evenodd" clip-rule="evenodd" d="M142.236 183.712L140.907 182.225C133.73 174.196 129.418 167.023 127.252 161.16C126.172 158.237 125.574 155.501 125.505 153.065C125.441 150.76 125.838 148.07 127.495 145.934L128.254 144.955L129.372 144.423C137.979 140.326 148.823 141.061 158.265 143.724C167.798 146.413 177.094 151.398 182.954 157.261L185.568 159.876L183.96 163.206C174.273 183.275 154.285 185.043 144.218 183.931L142.236 183.712ZM144.79 178.754C153.989 179.77 171.015 178.042 179.27 160.942C169.11 150.777 145.533 142.499 131.61 149.126C129.177 152.263 131.057 163.391 144.79 178.754Z" fill="#367703"/>
<path d="M192.723 20.3571C202.984 4.38049 220.094 4.72242 229.103 6.84299C240.878 23.7524 241.4 35.0266 238.605 37.8466C223.984 42.7427 201.58 31.6763 192.723 20.3571Z" fill="#70B715"/>
<path fill-rule="evenodd" clip-rule="evenodd" d="M232.237 2.23019L233.377 3.86665C239.531 12.7036 242.944 20.3456 244.386 26.4265C245.105 29.4591 245.367 32.2474 245.141 34.6737C244.927 36.9695 244.208 39.5924 242.305 41.5127L241.433 42.3922L240.259 42.7854C231.22 45.8122 220.544 43.7724 211.493 39.9877C202.354 36.1659 193.729 30.0945 188.621 23.5667L186.342 20.6542L188.341 17.5427C200.382 -1.20757 220.437 -0.547674 230.296 1.77316L232.237 2.23019ZM229.103 6.84296C220.094 4.72239 202.984 4.38046 192.723 20.357C201.58 31.6763 223.984 42.7427 238.605 37.8466C241.4 35.0266 240.878 23.7523 229.103 6.84296Z" fill="#367703"/>
<path d="M257.956 57.955C276.687 62.3797 282.126 78.8521 283.134 88.1784C270.938 105.133 260.336 109.431 256.698 107.71C247.091 95.3826 250.12 70.2362 257.956 57.955Z" fill="#70B715"/>
<path fill-rule="evenodd" clip-rule="evenodd" d="M288.526 89.601L287.362 91.2197C280.991 100.075 274.842 105.906 269.524 109.328C266.872 111.034 264.302 112.221 261.916 112.82C259.657 113.387 256.926 113.58 254.47 112.418L253.351 111.888L252.59 110.911C246.665 103.31 245.018 92.4372 245.586 82.5174C246.159 72.502 249.054 62.2234 253.565 55.1533L255.554 52.0359L259.153 52.8859C281.092 58.0687 287.21 77.4236 288.312 87.6184L288.526 89.601ZM283.134 88.1783C282.126 78.852 276.686 62.3796 257.956 57.9549C250.12 70.2362 247.09 95.3825 256.698 107.71C260.335 109.431 270.937 105.133 283.134 88.1783Z" fill="#367703"/>
<path d="M150.173 142.997C127.243 154.394 103.831 139.614 94.9914 130.799C93.3224 102.799 103.254 93.1612 108.428 91.8422C128.607 96.4307 144.665 127.858 150.173 142.997Z" fill="#9FD336"/>
<path fill-rule="evenodd" clip-rule="evenodd" d="M89.9098 133.088L89.7919 131.109C88.9211 116.499 91.0407 106.147 94.4495 99.0586C97.8047 92.082 102.609 87.9513 107.142 86.7958L108.359 86.4857L109.583 86.764C121.671 89.513 131.697 99.9453 139.069 110.477C146.604 121.242 152.19 133.308 155.067 141.217L156.658 145.591L152.49 147.662C139.455 154.141 126.363 153.096 115.607 149.404C104.936 145.741 96.2133 139.373 91.3134 134.487L89.9098 133.088ZM150.172 142.998C144.665 127.858 128.606 96.4312 108.428 91.8427C103.254 93.1617 93.3221 102.799 94.9912 130.799C103.831 139.614 127.242 154.394 150.172 142.998Z" fill="#779A06"/>
<path fill-rule="evenodd" clip-rule="evenodd" d="M144.11 145.422C146.128 144.803 148.152 144.002 150.172 142.998C144.665 127.858 128.606 96.4313 108.428 91.8427C103.568 93.0815 94.5094 101.661 94.8117 125.905C98.7086 104.451 108.299 97.9987 113.067 97.5555C129.078 103.96 139.352 128.327 144.11 145.422Z" fill="#BFF84B"/>
<path d="M256.814 86.9745C279.231 106.567 274.76 133.027 269.397 146.51C240.459 160.879 222.853 159.092 219.123 154.108C214.896 130.304 237.219 98.1047 256.814 86.9745Z" fill="#68B00B"/>
<path fill-rule="evenodd" clip-rule="evenodd" d="M273.498 150.288L271.713 151.174C256.826 158.566 244.551 161.959 235.251 162.756C230.609 163.153 226.561 162.916 223.242 162.103C220.051 161.321 216.91 159.845 214.953 157.229L214.211 156.238L213.994 155.019C211.562 141.322 216.787 125.989 224.577 113.095C232.417 100.119 243.485 88.5552 254.242 82.4456L257.457 80.619L260.242 83.0526C285.14 104.815 279.922 134.14 274.236 148.435L273.498 150.288ZM269.396 146.51C274.76 133.026 279.23 106.567 256.814 86.9742C237.219 98.1044 214.896 130.304 219.122 154.108C222.852 159.092 240.458 160.879 269.396 146.51Z" fill="#326D03"/>
<path d="M256.814 86.9745C279.231 106.567 274.76 133.027 269.397 146.51C249.945 124.009 236.26 120.041 232.53 115.057C234.483 102.524 250.759 91.7823 256.814 86.9745Z" fill="#599B04"/>
<path d="M258.335 82.7893C274.032 93.9255 272.886 111.235 270.317 120.257C252.645 131.389 241.205 131.39 238.481 128.429C234.207 113.395 246.46 91.2281 258.335 82.7893Z" fill="#9FD336"/>
<path fill-rule="evenodd" clip-rule="evenodd" d="M274.78 123.601L273.093 124.664C263.863 130.479 255.974 133.573 249.76 134.746C246.661 135.332 243.834 135.466 241.397 135.125C239.09 134.802 236.487 133.955 234.647 131.955L233.809 131.044L233.47 129.853C230.835 120.583 233.392 109.888 237.644 100.908C241.938 91.8409 248.481 83.4024 255.318 78.5443L258.332 76.4021L261.348 78.5419C279.734 91.5854 278.134 111.821 275.326 121.683L274.78 123.601ZM270.317 120.257C272.885 111.235 274.032 93.926 258.335 82.7898C246.459 91.2287 234.207 113.396 238.48 128.429C241.205 131.391 252.645 131.39 270.317 120.257Z" fill="#779A06"/>
<path d="M113.922 78.9745C99.1787 58.039 110.236 32.656 117.608 22.5812C145.03 16.6838 156.063 25.0385 158.152 29.9528C156.678 50.5935 128.051 71.2341 113.922 78.9745Z" fill="#9FD336"/>
<path fill-rule="evenodd" clip-rule="evenodd" d="M114.575 17.906L116.512 17.4893C130.822 14.412 141.375 14.9367 148.899 17.2307C156.304 19.4885 161.115 23.6104 162.945 27.9156L163.436 29.0714L163.347 30.324C162.464 42.6893 153.673 54.1818 144.382 63.0659C134.884 72.1469 123.806 79.4985 116.424 83.5422L112.343 85.7781L109.664 81.9732C101.282 70.0719 100.328 56.9729 102.346 45.781C104.348 34.6776 109.318 25.0901 113.404 19.5057L114.575 17.906ZM113.922 78.9745C128.051 71.2341 156.678 50.5935 158.152 29.9529C156.063 25.0385 145.03 16.6839 117.608 22.5813C110.236 32.6557 99.1784 58.0391 113.922 78.9745Z" fill="#779A06"/>
<path fill-rule="evenodd" clip-rule="evenodd" d="M156.162 38.3081C153.83 44.2083 149.699 49.9625 144.776 55.2589C149.453 49.9424 153.548 44.1734 156.162 38.3081ZM116.44 24.2628C109.163 35.2667 99.9401 59.1208 113.922 78.975C115.167 78.2932 116.524 77.5112 117.965 76.6378C104.162 58.7448 110.342 36.0232 116.44 24.2628Z" fill="#BFF84B"/>
<path d="M253.334 88.65C253.334 126.767 221.507 157.667 182.246 157.667C142.985 157.667 111.158 126.767 111.158 88.65C111.158 50.5331 142.985 19.6328 182.246 19.6328C221.507 19.6328 253.334 50.5331 253.334 88.65Z" fill="#B4A75B"/>
<path fill-rule="evenodd" clip-rule="evenodd" d="M258.542 88.65C258.542 129.788 224.237 162.875 182.246 162.875C140.255 162.875 105.95 129.788 105.95 88.65C105.95 47.5125 140.255 14.4244 182.246 14.4244C224.237 14.4244 258.542 47.5125 258.542 88.65ZM182.246 157.667C221.507 157.667 253.334 126.767 253.334 88.65C253.334 50.533 221.507 19.6328 182.246 19.6328C142.985 19.6328 111.158 50.533 111.158 88.65C111.158 126.767 142.985 157.667 182.246 157.667Z" fill="#A29338"/>
<path d="M243.29 48.8505C243.29 60.0958 234.173 69.2122 222.928 69.2122C211.683 69.2122 202.566 60.0958 202.566 48.8505C202.566 37.6049 211.683 28.4888 222.928 28.4888C234.173 28.4888 243.29 37.6049 243.29 48.8505Z" fill="#F3E9BE"/>
<path fill-rule="evenodd" clip-rule="evenodd" d="M248.498 48.8505C248.498 62.9724 237.05 74.4206 222.928 74.4206C208.806 74.4206 197.358 62.9724 197.358 48.8505C197.358 34.7286 208.806 23.2805 222.928 23.2805C237.05 23.2805 248.498 34.7286 248.498 48.8505ZM222.928 69.2122C234.173 69.2122 243.29 60.0958 243.29 48.8505C243.29 37.6049 234.173 28.4888 222.928 28.4888C211.683 28.4888 202.566 37.6049 202.566 48.8505C202.566 60.0958 211.683 69.2122 222.928 69.2122Z" fill="#C2B66C"/>
<path d="M195.379 31.9857C195.379 41.7565 187.458 49.6776 177.687 49.6776C167.916 49.6776 159.995 41.7565 159.995 31.9857C159.995 22.2146 167.916 14.2938 177.687 14.2938C187.458 14.2938 195.379 22.2146 195.379 31.9857Z" fill="#E3D596"/>
<path fill-rule="evenodd" clip-rule="evenodd" d="M200.587 31.9857C200.587 44.633 190.335 54.8859 177.687 54.8859C165.04 54.8859 154.787 44.633 154.787 31.9857C154.787 19.338 165.04 9.08539 177.687 9.08539C190.335 9.08539 200.587 19.338 200.587 31.9857ZM177.687 49.6776C187.458 49.6776 195.379 41.7565 195.379 31.9857C195.379 22.2146 187.458 14.2937 177.687 14.2937C167.916 14.2937 159.995 22.2146 159.995 31.9857C159.995 41.7565 167.916 49.6776 177.687 49.6776Z" fill="#C2B66C"/>
<path d="M156.493 84.1354C156.493 98.6903 144.695 110.489 130.14 110.489C115.585 110.489 103.786 98.6903 103.786 84.1354C103.786 69.5807 115.585 57.7817 130.14 57.7817C144.695 57.7817 156.493 69.5807 156.493 84.1354Z" fill="#F8F2D8"/>
<path fill-rule="evenodd" clip-rule="evenodd" d="M161.702 84.1354C161.702 101.567 147.571 115.697 130.14 115.697C112.709 115.697 98.5779 101.567 98.5779 84.1354C98.5779 66.7042 112.709 52.5734 130.14 52.5734C147.571 52.5734 161.702 66.7042 161.702 84.1354ZM130.14 110.489C144.695 110.489 156.494 98.6903 156.494 84.1354C156.494 69.5807 144.695 57.7818 130.14 57.7818C115.585 57.7818 103.786 69.5807 103.786 84.1354C103.786 98.6903 115.585 110.489 130.14 110.489Z" fill="#D9CD8C"/>
<path d="M259.667 64.0573C259.667 76.5839 249.513 86.7388 236.986 86.7388C224.46 86.7388 214.305 76.5839 214.305 64.0573C214.305 51.5307 224.46 41.376 236.986 41.376C249.513 41.376 259.667 51.5307 259.667 64.0573Z" fill="#F8F2D8"/>
<path fill-rule="evenodd" clip-rule="evenodd" d="M264.876 64.0572C264.876 79.4604 252.389 91.9471 236.986 91.9471C221.583 91.9471 209.097 79.4604 209.097 64.0572C209.097 48.6544 221.583 36.1677 236.986 36.1677C252.389 36.1677 264.876 48.6544 264.876 64.0572ZM236.986 86.7388C249.513 86.7388 259.667 76.5838 259.667 64.0573C259.667 51.5307 249.513 41.376 236.986 41.376C224.46 41.376 214.305 51.5307 214.305 64.0573C214.305 76.5838 224.46 86.7388 236.986 86.7388Z" fill="#D9CD8C"/>
<path d="M176.789 41.9325C176.789 51.7034 168.868 59.6245 159.097 59.6245C149.326 59.6245 141.405 51.7034 141.405 41.9325C141.405 32.1614 149.326 24.2404 159.097 24.2404C168.868 24.2404 176.789 32.1614 176.789 41.9325Z" fill="#F8F2D8"/>
<path fill-rule="evenodd" clip-rule="evenodd" d="M181.998 41.9326C181.998 54.58 171.745 64.8328 159.097 64.8328C146.45 64.8328 136.197 54.58 136.197 41.9326C136.197 29.2849 146.45 19.032 159.097 19.032C171.745 19.032 181.998 29.2849 181.998 41.9326ZM159.097 59.6245C168.868 59.6245 176.789 51.7034 176.789 41.9326C176.789 32.1615 168.868 24.2404 159.097 24.2404C149.326 24.2404 141.405 32.1615 141.405 41.9326C141.405 51.7034 149.326 59.6245 159.097 59.6245Z" fill="#D9CD8C"/>
<path d="M251.859 117.167C251.859 125.537 245.074 132.322 236.704 132.322C228.334 132.322 221.548 125.537 221.548 117.167C221.548 108.797 228.334 102.011 236.704 102.011C245.074 102.011 251.859 108.797 251.859 117.167Z" fill="#F3E9BE"/>
<path fill-rule="evenodd" clip-rule="evenodd" d="M257.068 117.167C257.068 128.413 247.951 137.53 236.704 137.53C225.457 137.53 216.34 128.413 216.34 117.167C216.34 105.92 225.457 96.8029 236.704 96.8029C247.951 96.8029 257.068 105.92 257.068 117.167ZM236.704 132.322C245.074 132.322 251.859 125.537 251.859 117.167C251.859 108.797 245.074 102.011 236.704 102.011C228.334 102.011 221.548 108.797 221.548 117.167C221.548 125.537 228.334 132.322 236.704 132.322Z" fill="#C2B66C"/>
<path d="M145.068 119.703C145.068 129.474 137.147 137.395 127.376 137.395C117.605 137.395 109.684 129.474 109.684 119.703C109.684 109.932 117.605 102.011 127.376 102.011C137.147 102.011 145.068 109.932 145.068 119.703Z" fill="#F8F2D8"/>
<path fill-rule="evenodd" clip-rule="evenodd" d="M150.276 119.703C150.276 132.351 140.023 142.604 127.376 142.604C114.728 142.604 104.475 132.351 104.475 119.703C104.475 107.056 114.728 96.8029 127.376 96.8029C140.023 96.8029 150.276 107.056 150.276 119.703ZM127.376 137.395C137.147 137.395 145.068 129.474 145.068 119.703C145.068 109.932 137.147 102.011 127.376 102.011C117.605 102.011 109.684 109.932 109.684 119.703C109.684 129.474 117.605 137.395 127.376 137.395Z" fill="#D9CD8C"/>
<path d="M204.778 147.347C204.778 157.118 196.857 165.039 187.086 165.039C177.315 165.039 169.394 157.118 169.394 147.347C169.394 137.576 177.315 129.655 187.086 129.655C196.857 129.655 204.778 137.576 204.778 147.347Z" fill="#F3E9BE"/>
<path fill-rule="evenodd" clip-rule="evenodd" d="M209.986 147.347C209.986 159.994 199.733 170.247 187.086 170.247C174.438 170.247 164.185 159.994 164.185 147.347C164.185 134.7 174.438 124.447 187.086 124.447C199.733 124.447 209.986 134.7 209.986 147.347ZM187.086 165.039C196.857 165.039 204.778 157.118 204.778 147.347C204.778 137.576 196.857 129.655 187.086 129.655C177.315 129.655 169.394 137.576 169.394 147.347C169.394 157.118 177.315 165.039 187.086 165.039Z" fill="#C2B66C"/>
<path d="M237.95 141.45C237.95 151.221 230.029 159.142 220.258 159.142C210.487 159.142 202.566 151.221 202.566 141.45C202.566 131.679 210.487 123.758 220.258 123.758C230.029 123.758 237.95 131.679 237.95 141.45Z" fill="#F8F2D8"/>
<path fill-rule="evenodd" clip-rule="evenodd" d="M243.159 141.45C243.159 154.097 232.906 164.35 220.258 164.35C207.611 164.35 197.358 154.097 197.358 141.45C197.358 128.802 207.611 118.549 220.258 118.549C232.906 118.549 243.159 128.802 243.159 141.45ZM220.258 159.142C230.029 159.142 237.95 151.221 237.95 141.45C237.95 131.679 230.029 123.758 220.258 123.758C210.487 123.758 202.566 131.679 202.566 141.45C202.566 151.221 210.487 159.142 220.258 159.142Z" fill="#D9CD8C"/>
<path d="M217.8 154.176C217.8 155.502 216.725 156.577 215.399 156.577C214.073 156.577 212.998 155.502 212.998 154.176C212.998 152.85 214.073 151.775 215.399 151.775C216.725 151.775 217.8 152.85 217.8 154.176Z" fill="#EADEAA"/>
<path d="M227.1 152.504C227.1 154.173 225.746 155.526 224.078 155.526C222.409 155.526 221.056 154.173 221.056 152.504C221.056 150.835 222.409 149.482 224.078 149.482C225.746 149.482 227.1 150.835 227.1 152.504Z" fill="#EADEAA"/>
<path d="M232.248 147.457C232.248 148.457 231.438 149.267 230.439 149.267C229.439 149.267 228.629 148.457 228.629 147.457C228.629 146.458 229.439 145.648 230.439 145.648C231.438 145.648 232.248 146.458 232.248 147.457Z" fill="#EADEAA"/>
<path d="M235.128 139.259C235.128 140.258 234.317 141.068 233.318 141.068C232.319 141.068 231.509 140.258 231.509 139.259C231.509 138.259 232.319 137.449 233.318 137.449C234.317 137.449 235.128 138.259 235.128 139.259Z" fill="#EADEAA"/>
<path d="M227.099 145.647C227.099 146.647 226.289 147.457 225.29 147.457C224.291 147.457 223.48 146.647 223.48 145.647C223.48 144.648 224.291 143.837 225.29 143.837C226.289 143.837 227.099 144.648 227.099 145.647Z" fill="#EADEAA"/>
<path d="M268.174 86.9039C268.174 96.675 260.253 104.596 250.482 104.596C240.711 104.596 232.79 96.675 232.79 86.9039C232.79 77.1328 240.711 69.212 250.482 69.212C260.253 69.212 268.174 77.1328 268.174 86.9039Z" fill="#F8F2D8"/>
<path fill-rule="evenodd" clip-rule="evenodd" d="M273.383 86.9039C273.383 99.5513 263.13 109.804 250.482 109.804C237.835 109.804 227.582 99.5513 227.582 86.9039C227.582 74.2565 237.835 64.0036 250.482 64.0036C263.13 64.0036 273.383 74.2565 273.383 86.9039ZM250.482 104.596C260.253 104.596 268.174 96.675 268.174 86.9039C268.174 77.1328 260.253 69.2119 250.482 69.2119C240.711 69.2119 232.79 77.1328 232.79 86.9039C232.79 96.675 240.711 104.596 250.482 104.596Z" fill="#D9CD8C"/>
<path d="M249.383 99.2432C249.383 100.55 248.324 101.609 247.017 101.609C245.711 101.609 244.652 100.55 244.652 99.2432C244.652 97.9367 245.711 96.8773 247.017 96.8773C248.324 96.8773 249.383 97.9367 249.383 99.2432Z" fill="#EADEAA"/>
<path d="M258.547 97.5951C258.547 99.2396 257.214 100.573 255.569 100.573C253.924 100.573 252.591 99.2396 252.591 97.5951C252.591 95.9503 253.924 94.6172 255.569 94.6172C257.214 94.6172 258.547 95.9503 258.547 97.5951Z" fill="#EADEAA"/>
<path d="M263.62 92.6224C263.62 93.6073 262.821 94.4057 261.836 94.4057C260.852 94.4057 260.053 93.6073 260.053 92.6224C260.053 91.6377 260.852 90.8393 261.836 90.8393C262.821 90.8393 263.62 91.6377 263.62 92.6224Z" fill="#EADEAA"/>
<path d="M266.457 84.5434C266.457 85.5283 265.659 86.3268 264.674 86.3268C263.689 86.3268 262.891 85.5283 262.891 84.5434C262.891 83.5588 263.689 82.7604 264.674 82.7604C265.659 82.7604 266.457 83.5588 266.457 84.5434Z" fill="#EADEAA"/>
<path d="M258.547 90.839C258.547 91.8239 257.748 92.6221 256.764 92.6221C255.779 92.6221 254.98 91.8239 254.98 90.839C254.98 89.8544 255.779 89.056 256.764 89.056C257.748 89.056 258.547 89.8544 258.547 90.839Z" fill="#EADEAA"/>
<path d="M225.694 92.6802C225.694 104.385 216.205 113.874 204.499 113.874C192.794 113.874 183.305 104.385 183.305 92.6802C183.305 80.975 192.794 71.4862 204.499 71.4862C216.205 71.4862 225.694 80.975 225.694 92.6802Z" fill="#EDE3BA"/>
<path fill-rule="evenodd" clip-rule="evenodd" d="M230.902 92.6802C230.902 107.262 219.081 119.083 204.499 119.083C189.918 119.083 178.097 107.262 178.097 92.6802C178.097 78.0987 189.918 66.2778 204.499 66.2778C219.081 66.2778 230.902 78.0987 230.902 92.6802ZM204.499 113.874C216.205 113.874 225.694 104.385 225.694 92.6802C225.694 80.975 216.205 71.4862 204.499 71.4862C192.794 71.4862 183.305 80.975 183.305 92.6802C183.305 104.385 192.794 113.874 204.499 113.874Z" fill="#C2B66C"/>
<path d="M202.85 106.964C202.85 108.476 201.624 109.702 200.112 109.702C198.599 109.702 197.373 108.476 197.373 106.964C197.373 105.451 198.599 104.225 200.112 104.225C201.624 104.225 202.85 105.451 202.85 106.964Z" fill="#DACC92"/>
<path d="M213.457 105.056C213.457 106.96 211.914 108.503 210.01 108.503C208.107 108.503 206.564 106.96 206.564 105.056C206.564 103.153 208.107 101.61 210.01 101.61C211.914 101.61 213.457 103.153 213.457 105.056Z" fill="#DACC92"/>
<path d="M219.33 99.2995C219.33 100.439 218.406 101.364 217.266 101.364C216.126 101.364 215.202 100.439 215.202 99.2995C215.202 98.1594 216.126 97.2354 217.266 97.2354C218.406 97.2354 219.33 98.1594 219.33 99.2995Z" fill="#DACC92"/>
<path d="M222.615 89.9482C222.615 91.0883 221.69 92.0122 220.551 92.0122C219.41 92.0122 218.486 91.0883 218.486 89.9482C218.486 88.8083 219.41 87.8841 220.551 87.8841C221.69 87.8841 222.615 88.8083 222.615 89.9482Z" fill="#DACC92"/>
<path d="M213.458 97.2357C213.458 98.3755 212.534 99.2998 211.394 99.2998C210.254 99.2998 209.33 98.3755 209.33 97.2357C209.33 96.0956 210.254 95.1716 211.394 95.1716C212.534 95.1716 213.458 96.0956 213.458 97.2357Z" fill="#DACC92"/>
<path d="M220.786 35.1062C220.786 45.5826 212.293 54.0755 201.816 54.0755C191.34 54.0755 182.847 45.5826 182.847 35.1062C182.847 24.6297 191.34 16.1367 201.816 16.1367C212.293 16.1367 220.786 24.6297 220.786 35.1062Z" fill="#F8F2D8"/>
<path fill-rule="evenodd" clip-rule="evenodd" d="M225.994 35.1062C225.994 48.4591 215.169 59.2838 201.816 59.2838C188.463 59.2838 177.639 48.4591 177.639 35.1062C177.639 21.7531 188.463 10.9283 201.816 10.9283C215.169 10.9283 225.994 21.7531 225.994 35.1062ZM201.816 54.0755C212.293 54.0755 220.786 45.5825 220.786 35.1062C220.786 24.6297 212.293 16.1367 201.816 16.1367C191.34 16.1367 182.847 24.6297 182.847 35.1062C182.847 45.5825 191.34 54.0755 201.816 54.0755Z" fill="#D9CD8C"/>
<path d="M209.462 57.0023C209.462 72.3482 197.022 84.7885 181.676 84.7885C166.33 84.7885 153.89 72.3482 153.89 57.0023C153.89 41.6565 166.33 29.2161 181.676 29.2161C197.022 29.2161 209.462 41.6565 209.462 57.0023Z" fill="#F8F2D8"/>
<path fill-rule="evenodd" clip-rule="evenodd" d="M214.671 57.0023C214.671 75.2247 199.898 89.9969 181.676 89.9969C163.453 89.9969 148.681 75.2247 148.681 57.0023C148.681 38.7799 163.453 24.0078 181.676 24.0078C199.898 24.0078 214.671 38.7799 214.671 57.0023ZM181.676 84.7885C197.022 84.7885 209.462 72.3482 209.462 57.0023C209.462 41.6565 197.022 29.2161 181.676 29.2161C166.33 29.2161 153.89 41.6565 153.89 57.0023C153.89 72.3482 166.33 84.7885 181.676 84.7885Z" fill="#D9CD8C"/>
<path d="M181.114 80.0716C181.114 82.0539 179.507 83.6607 177.525 83.6607C175.543 83.6607 173.936 82.0539 173.936 80.0716C173.936 78.0896 175.543 76.4828 177.525 76.4828C179.507 76.4828 181.114 78.0896 181.114 80.0716Z" fill="#EADEAA"/>
<path d="M195.015 77.5719C195.015 80.0667 192.992 82.0891 190.497 82.0891C188.003 82.0891 185.98 80.0667 185.98 77.5719C185.98 75.0771 188.003 73.0547 190.497 73.0547C192.992 73.0547 195.015 75.0771 195.015 77.5719Z" fill="#EADEAA"/>
<path d="M202.711 70.0273C202.711 71.5213 201.5 72.7323 200.006 72.7323C198.512 72.7323 197.301 71.5213 197.301 70.0273C197.301 68.5333 198.512 67.3224 200.006 67.3224C201.5 67.3224 202.711 68.5333 202.711 70.0273Z" fill="#EADEAA"/>
<path d="M207.015 57.7726C207.015 59.2666 205.804 60.4776 204.31 60.4776C202.816 60.4776 201.605 59.2666 201.605 57.7726C201.605 56.2786 202.816 55.0677 204.31 55.0677C205.804 55.0677 207.015 56.2786 207.015 57.7726Z" fill="#EADEAA"/>
<path d="M195.015 67.3226C195.015 68.8166 193.804 70.0276 192.31 70.0276C190.816 70.0276 189.605 68.8166 189.605 67.3226C189.605 65.8289 190.816 64.6177 192.31 64.6177C193.804 64.6177 195.015 65.8289 195.015 67.3226Z" fill="#EADEAA"/>
<path d="M195.462 113.119C195.462 128.766 182.778 141.449 167.132 141.449C151.485 141.449 138.801 128.766 138.801 113.119C138.801 97.4726 151.485 84.7885 167.132 84.7885C182.778 84.7885 195.462 97.4726 195.462 113.119Z" fill="#F8F2D8"/>
<path fill-rule="evenodd" clip-rule="evenodd" d="M200.671 113.119C200.671 131.642 185.655 146.658 167.132 146.658C148.609 146.658 133.593 131.642 133.593 113.119C133.593 94.5961 148.609 79.5802 167.132 79.5802C185.655 79.5802 200.671 94.5961 200.671 113.119ZM167.132 141.449C182.778 141.449 195.462 128.766 195.462 113.119C195.462 97.4726 182.778 84.7885 167.132 84.7885C151.485 84.7885 138.801 97.4726 138.801 113.119C138.801 128.766 151.485 141.449 167.132 141.449Z" fill="#D9CD8C"/>
<path d="M159.282 67.4367C159.282 79.752 149.298 89.7359 136.983 89.7359C124.667 89.7359 114.683 79.752 114.683 67.4367C114.683 55.121 124.667 45.1375 136.983 45.1375C149.298 45.1375 159.282 55.121 159.282 67.4367Z" fill="#F8F2D8"/>
<path fill-rule="evenodd" clip-rule="evenodd" d="M164.49 67.4367C164.49 82.6286 152.175 94.9442 136.983 94.9442C121.791 94.9442 109.475 82.6286 109.475 67.4367C109.475 52.2445 121.791 39.9291 136.983 39.9291C152.175 39.9291 164.49 52.2445 164.49 67.4367ZM136.983 89.7359C149.298 89.7359 159.282 79.752 159.282 67.4367C159.282 55.1211 149.298 45.1375 136.983 45.1375C124.667 45.1375 114.683 55.1211 114.683 67.4367C114.683 79.752 124.667 89.7359 136.983 89.7359Z" fill="#D9CD8C"/>
<path d="M192.983 51.9781C192.983 58.4922 187.703 63.7729 181.189 63.7729C174.674 63.7729 169.394 58.4922 169.394 51.9781C169.394 45.4641 174.674 40.1833 181.189 40.1833C187.703 40.1833 192.983 45.4641 192.983 51.9781Z" fill="#FFFEF8"/>
<path d="M169.394 112.513C169.394 117.909 165.02 122.283 159.624 122.283C154.228 122.283 149.854 117.909 149.854 112.513C149.854 107.117 154.228 102.743 159.624 102.743C165.02 102.743 169.394 107.117 169.394 112.513Z" fill="#FFFEF8"/>
<path d="M138.801 59.4672C138.801 63.932 135.182 67.5513 130.717 67.5513C126.253 67.5513 122.633 63.932 122.633 59.4672C122.633 55.0026 126.253 51.3833 130.717 51.3833C135.182 51.3833 138.801 55.0026 138.801 59.4672Z" fill="#FFFEF8"/>
<path d="M249.997 81.7161C249.997 84.6685 247.604 87.0617 244.652 87.0617C241.699 87.0617 239.306 84.6685 239.306 81.7161C239.306 78.7635 241.699 76.3703 244.652 76.3703C247.604 76.3703 249.997 78.7635 249.997 81.7161Z" fill="#FFFEF8"/>
<path d="M242.216 54.6211C242.216 57.2976 240.046 59.4677 237.37 59.4677C234.693 59.4677 232.523 57.2976 232.523 54.6211C232.523 51.9445 234.693 49.7747 237.37 49.7747C240.046 49.7747 242.216 51.9445 242.216 54.6211Z" fill="#FFFEF8"/>
<path d="M170.113 141.093C170.113 143.075 168.506 144.682 166.524 144.682C164.542 144.682 162.935 143.075 162.935 141.093C162.935 139.111 164.542 137.504 166.524 137.504C168.506 137.504 170.113 139.111 170.113 141.093Z" fill="#EADEAA"/>
<path d="M184.014 138.593C184.014 141.088 181.991 143.11 179.496 143.11C177.002 143.11 174.979 141.088 174.979 138.593C174.979 136.098 177.002 134.076 179.496 134.076C181.991 134.076 184.014 136.098 184.014 138.593Z" fill="#EADEAA"/>
<path d="M191.71 131.048C191.71 132.542 190.499 133.753 189.005 133.753C187.511 133.753 186.3 132.542 186.3 131.048C186.3 129.555 187.511 128.343 189.005 128.343C190.499 128.343 191.71 129.555 191.71 131.048Z" fill="#EADEAA"/>
<path d="M196.014 118.794C196.014 120.288 194.803 121.499 193.309 121.499C191.815 121.499 190.604 120.288 190.604 118.794C190.604 117.3 191.815 116.089 193.309 116.089C194.803 116.089 196.014 117.3 196.014 118.794Z" fill="#EADEAA"/>
<path d="M184.014 128.344C184.014 129.838 182.803 131.049 181.309 131.049C179.815 131.049 178.604 129.838 178.604 128.344C178.604 126.85 179.815 125.639 181.309 125.639C182.803 125.639 184.014 126.85 184.014 128.344Z" fill="#EADEAA"/>
<path d="M316.799 36.9172C316.799 36.9172 322.872 46.856 323.046 54.6253C323.255 63.9891 315.909 70.1196 315.909 70.1196C315.909 70.1196 310.479 63.0763 310.743 53.1987C310.947 45.6008 316.799 36.9172 316.799 36.9172Z" fill="#519B07"/>
<path fill-rule="evenodd" clip-rule="evenodd" d="M321.243 34.2011L316.799 36.917L312.48 34.0063C313.471 32.5357 315.142 31.6703 316.915 31.7099C318.687 31.7492 320.318 32.688 321.243 34.2011ZM313.811 42.2854C315.312 39.1235 316.799 36.917 316.799 36.917C316.799 36.917 318.168 39.1581 319.625 42.344C321.237 45.8672 322.955 50.5451 323.046 54.625C323.153 59.4018 321.293 63.3373 319.446 66.0464C317.672 68.6482 315.909 70.1193 315.909 70.1193C315.909 70.1193 314.576 68.3899 313.262 65.4435C311.926 62.4435 310.61 58.1815 310.743 53.1985C310.844 49.4305 312.334 45.3959 313.811 42.2854ZM315.909 70.1193C311.784 73.2995 311.783 73.2979 311.782 73.2964L311.78 73.2935L311.774 73.2867L311.763 73.2714L311.733 73.2326C311.711 73.2031 311.684 73.1667 311.652 73.1232C311.588 73.0365 311.505 72.9214 311.406 72.7794C311.208 72.4956 310.944 72.1024 310.638 71.6084C310.027 70.6227 309.238 69.2203 308.463 67.469C306.924 63.9867 305.378 58.9787 305.537 53.0589C305.668 48.1578 307.56 43.2927 309.147 39.9662C309.972 38.2365 310.787 36.775 311.399 35.7407C311.706 35.2216 311.965 34.805 312.152 34.5102C312.246 34.3628 312.322 34.2456 312.377 34.1607L312.445 34.0584L312.467 34.0258L312.474 34.0144L312.48 34.0063C312.48 34.0052 312.48 34.0063 316.799 36.917C321.243 34.2011 321.243 34.2003 321.243 34.2011L321.248 34.2089L321.255 34.2201L321.275 34.2537L321.341 34.3636C321.396 34.4552 321.472 34.5839 321.566 34.7461C321.754 35.0706 322.016 35.5318 322.327 36.105C322.948 37.2479 323.777 38.8576 324.615 40.7375C326.22 44.3404 328.142 49.5492 328.253 54.5086C328.389 60.6063 326.065 65.525 323.883 68.7818C322.782 70.4258 321.674 71.7138 320.828 72.6037C320.403 73.0505 320.038 73.4034 319.766 73.6563C319.629 73.7831 319.515 73.8852 319.427 73.9623C319.383 74.0008 319.346 74.0331 319.316 74.0591L319.275 74.0935L319.259 74.1071L319.252 74.1128L319.249 74.1156C319.247 74.117 319.246 74.1183 315.909 70.1193ZM311.784 73.2995L315.909 70.1193L319.246 74.1183C318.159 75.0255 316.749 75.4511 315.341 75.2964C313.933 75.142 312.649 74.4209 311.784 73.2995Z" fill="#156319"/>
<path d="M285.888 52.2539C285.888 52.2539 297.533 52.4786 304.177 56.5107C312.184 61.3703 313.401 70.8607 313.401 70.8607C313.401 70.8607 304.542 71.6511 296.357 66.1156C290.061 61.8576 285.888 52.2539 285.888 52.2539Z" fill="#70CA16"/>
<path fill-rule="evenodd" clip-rule="evenodd" d="M285.989 47.0464L285.888 52.2539L281.111 54.3297C280.404 52.7034 280.574 50.8292 281.56 49.3558C282.547 47.8823 284.216 47.0123 285.989 47.0464ZM288.807 57.6602C286.948 54.6943 285.888 52.2539 285.888 52.2539C285.888 52.2539 288.514 52.3045 291.984 52.7896C295.82 53.3261 300.688 54.3935 304.177 56.5107C308.261 58.9896 310.579 62.674 311.869 65.6886C313.109 68.5834 313.401 70.8607 313.401 70.8607C313.401 70.8607 311.226 71.0547 308.036 70.5771C304.787 70.0907 300.487 68.9081 296.358 66.1154C293.235 64.0039 290.635 60.5779 288.807 57.6602ZM313.401 70.8601C313.864 76.0479 313.862 76.0481 313.86 76.0481L313.856 76.0486L313.848 76.0492L313.829 76.051L313.78 76.0549C313.743 76.0578 313.698 76.0611 313.644 76.0645C313.536 76.0718 313.395 76.0799 313.222 76.0872C312.876 76.1015 312.403 76.1124 311.822 76.1049C310.662 76.09 309.055 76.001 307.162 75.7119C303.399 75.1372 298.345 73.7466 293.44 70.4291C289.379 67.6825 286.294 63.4713 284.343 60.3447C283.329 58.7187 282.535 57.2455 281.992 56.1734C281.719 55.6354 281.508 55.1929 281.36 54.8765C281.286 54.7182 281.228 54.5911 281.186 54.4986L281.136 54.3864L281.121 54.3507L281.115 54.3382L281.111 54.3291C281.111 54.3281 281.111 54.3291 285.888 52.2533C285.989 47.0458 285.987 47.0458 285.989 47.0458L285.997 47.046L286.011 47.0463L286.05 47.0473L286.178 47.0507C286.285 47.0541 286.434 47.0591 286.622 47.0671C286.996 47.083 287.526 47.1101 288.177 47.1559C289.474 47.2471 291.277 47.414 293.312 47.7187C297.213 48.3028 302.638 49.4841 306.879 52.0575C312.093 55.2221 314.99 59.8273 316.562 63.4179C317.356 65.2302 317.846 66.8572 318.141 68.0489C318.29 68.6476 318.391 69.1447 318.457 69.5109C318.491 69.6942 318.516 69.8453 318.533 69.9609C318.542 70.0184 318.549 70.0674 318.555 70.107L318.562 70.1593L318.565 70.1802L318.566 70.1893L318.567 70.1934C318.567 70.1955 318.567 70.1976 313.401 70.8601ZM313.864 76.0485L313.401 70.8607L318.567 70.1982C318.747 71.6029 318.348 73.0203 317.46 74.124C316.573 75.2279 315.274 75.9227 313.864 76.0485Z" fill="#156319"/>
<path d="M348.036 49.0219C348.036 49.0219 345.039 64.1347 338.144 69.925C329.834 76.9039 316.944 71.6185 316.944 71.6185C316.944 71.6185 317.947 59.4256 327.196 52.7034C334.312 47.5323 348.036 49.0219 348.036 49.0219Z" fill="#6DBB20"/>
<path fill-rule="evenodd" clip-rule="evenodd" d="M353.145 50.0355L348.036 49.0224L348.598 43.8446C350.05 44.0021 351.369 44.7623 352.234 45.9394C353.099 47.1167 353.429 48.6027 353.145 50.0355ZM342.747 48.829C345.839 48.7839 348.036 49.0224 348.036 49.0224C348.036 49.0224 347.612 51.1612 346.716 54.1381C345.23 59.0737 342.446 66.3133 338.144 69.9253C329.834 76.9042 316.944 71.6191 316.944 71.6191C316.944 71.6191 317.947 59.4261 327.197 52.7037C331.465 49.6019 338.111 48.8967 342.747 48.829ZM316.944 71.6191C311.753 71.1922 311.754 71.1902 311.754 71.1883L311.754 71.1844L311.755 71.1756L311.757 71.1542L311.762 71.0982C311.766 71.055 311.771 70.9998 311.778 70.9336C311.792 70.8008 311.813 70.623 311.841 70.4042C311.899 69.967 311.99 69.3638 312.13 68.631C312.409 67.1717 312.889 65.1638 313.704 62.9102C315.315 58.4594 318.369 52.6808 324.135 48.4907C328.953 44.9886 335.44 44.0123 339.955 43.7261C342.342 43.5748 344.469 43.6021 346 43.6667C346.769 43.699 347.396 43.7412 347.841 43.7763C348.064 43.7938 348.242 43.8097 348.37 43.8217L348.523 43.8368L348.571 43.8415L348.587 43.8433L348.598 43.8446C348.599 43.8446 348.598 43.8446 348.036 49.0224C353.145 50.0355 353.145 50.0344 353.145 50.0355L353.143 50.0456L353.14 50.0612L353.13 50.1089L353.097 50.268C353.069 50.4013 353.029 50.5891 352.976 50.825C352.87 51.2967 352.713 51.9628 352.504 52.7748C352.086 54.3925 351.452 56.6204 350.58 59.0573C348.935 63.654 346.086 70.0571 341.494 73.9139C335.768 78.7219 328.757 79.0826 323.882 78.5691C321.372 78.3045 319.193 77.7873 317.643 77.3396C316.862 77.1141 316.227 76.9021 315.772 76.7407C315.544 76.6597 315.36 76.5909 315.225 76.5391C315.157 76.5133 315.102 76.4915 315.059 76.4745L315.004 76.4524L314.984 76.4443L314.972 76.4394C314.97 76.4386 314.968 76.4378 316.944 71.6191ZM311.753 71.1922L316.944 71.6191L314.968 76.4378C312.868 75.5766 311.567 73.4545 311.753 71.1922Z" fill="#156319"/>
<path d="M335.887 68.9414C341.587 64.7987 345.015 52.5917 345.015 52.5917C331.305 57.9214 324.028 67.5268 321.712 71.1401C321.712 71.1401 330.187 73.0841 335.887 68.9414Z" fill="#56A409"/>
<path d="M367.975 96.8477C369.164 119.831 357.046 144.24 345.566 155.942C334.645 167.074 322.772 173.808 312.443 173.363C302.113 172.918 293.005 164.121 286.306 158.032C270.123 143.321 259 118.57 260.754 94.7391C266.225 58.5503 314.811 73.112 314.811 73.112C314.811 73.112 363.6 60.4219 367.975 96.8477Z" fill="#FF2F2F"/>
<path fill-rule="evenodd" clip-rule="evenodd" d="M373.168 96.4023L373.177 96.5786C373.821 109.033 370.864 121.662 366.335 132.616C361.812 143.554 355.574 153.179 349.284 159.59C338.03 171.061 324.792 179.108 312.219 178.567C305.664 178.284 299.847 175.382 295.071 172.112C290.793 169.184 286.929 165.653 283.841 162.833C283.484 162.507 283.138 162.191 282.803 161.886C265.521 146.177 253.68 119.897 255.56 94.357L255.574 94.1581L255.604 93.9609C257.172 83.5919 261.958 76.4167 268.523 71.825C274.911 67.3573 282.544 65.6362 289.476 65.1588C296.45 64.6789 303.139 65.4286 308.018 66.2698C310.475 66.693 312.513 67.1466 313.949 67.4979C314.308 67.5854 314.629 67.6667 314.91 67.7398C315.191 67.6779 315.511 67.6094 315.867 67.5362C317.309 67.2401 319.353 66.8648 321.812 66.5359C326.698 65.8831 333.382 65.3914 340.313 66.1422C347.206 66.8891 354.75 68.9086 360.968 73.6211C367.353 78.4594 371.895 85.8062 373.147 96.2268L373.168 96.4023ZM314.811 73.1123C314.811 73.1123 266.224 58.5505 260.754 94.7393C259 118.57 270.123 143.321 286.306 158.032C286.648 158.342 286.996 158.66 287.35 158.983C293.937 164.997 302.64 172.941 312.443 173.363C322.772 173.808 334.645 167.074 345.566 155.942C357.046 144.241 369.164 119.832 367.975 96.8479C363.6 60.4221 314.811 73.1123 314.811 73.1123Z" fill="#9F0B0B"/>
<path fill-rule="evenodd" clip-rule="evenodd" d="M329.652 148.295C341.132 136.594 353.251 112.184 352.062 89.2008C351.127 81.4165 348.164 75.8751 344.081 71.9738C355.361 74.1995 366.035 80.6941 367.975 96.8469C369.164 119.831 357.046 144.24 345.566 155.941C334.645 167.073 322.772 173.807 312.443 173.362C306.064 173.088 300.151 169.628 294.983 165.587C295.495 165.65 296.011 165.694 296.529 165.716C306.859 166.161 318.732 159.427 329.652 148.295Z" fill="#E02121"/>
<path d="M296.008 76.7105C300.296 82.0318 297.301 91.5597 289.319 97.9917C281.337 104.424 271.39 105.324 267.102 100.003C262.814 94.6813 265.809 85.1534 273.791 78.7214C281.773 72.2894 291.72 71.3891 296.008 76.7105Z" fill="#FF7070"/>
<path d="M352.974 107.843C352.268 110.009 349.94 111.192 347.774 110.486C345.608 109.779 344.425 107.451 345.131 105.285C345.838 103.12 348.166 101.936 350.332 102.643C352.497 103.349 353.68 105.677 352.974 107.843Z" fill="#BA1010"/>
<path d="M361.866 121.56C361.16 123.726 358.832 124.909 356.666 124.203C354.5 123.497 353.317 121.168 354.023 119.003C354.729 116.837 357.058 115.654 359.223 116.36C361.389 117.066 362.572 119.394 361.866 121.56Z" fill="#BA1010"/>
<path d="M364.376 106.138C363.847 107.763 362.1 108.65 360.476 108.12C358.852 107.59 357.965 105.844 358.494 104.22C359.024 102.596 360.77 101.708 362.394 102.238C364.019 102.768 364.906 104.514 364.376 106.138Z" fill="#BA1010"/>
<path d="M355.352 134.971C354.646 137.136 352.318 138.32 350.152 137.613C347.986 136.907 346.803 134.579 347.509 132.413C348.216 130.247 350.544 129.064 352.71 129.77C354.875 130.477 356.058 132.805 355.352 134.971Z" fill="#BA1010"/>
<path d="M346.46 121.253C345.754 123.419 343.426 124.602 341.26 123.896C339.094 123.189 337.911 120.861 338.617 118.695C339.324 116.53 341.652 115.347 343.818 116.053C345.983 116.759 347.166 119.087 346.46 121.253Z" fill="#BA1010"/>
<path d="M345.903 149.169C345.197 151.335 342.869 152.518 340.703 151.812C338.537 151.105 337.354 148.777 338.06 146.611C338.766 144.446 341.095 143.263 343.26 143.969C345.426 144.675 346.609 147.003 345.903 149.169Z" fill="#BA1010"/>
<path d="M339.941 135.404C339.235 137.57 336.907 138.753 334.741 138.046C332.575 137.34 331.392 135.012 332.098 132.846C332.805 130.68 335.133 129.497 337.299 130.203C339.464 130.91 340.647 133.238 339.941 135.404Z" fill="#BA1010"/>
<path d="M336.245 156.745C335.715 158.369 333.969 159.256 332.344 158.727C330.72 158.197 329.833 156.451 330.363 154.826C330.892 153.202 332.638 152.315 334.262 152.844C335.887 153.374 336.774 155.12 336.245 156.745Z" fill="#BA1010"/>
<path fill-rule="evenodd" clip-rule="evenodd" d="M309.899 121.91C311.212 121.323 312.753 121.911 313.34 123.224C313.418 123.4 313.539 123.592 313.67 123.736C313.698 123.766 313.723 123.79 313.743 123.809C313.905 123.722 314.247 123.485 314.738 122.886C315.65 121.774 317.291 121.611 318.403 122.522C319.516 123.434 319.679 125.075 318.767 126.187C316.955 128.398 314.665 129.599 312.236 128.832C310.211 128.192 309.069 126.432 308.585 125.351C307.998 124.038 308.586 122.497 309.899 121.91Z" fill="#FFCD83"/>
<path fill-rule="evenodd" clip-rule="evenodd" d="M279.989 115.982C281.302 115.395 282.843 115.983 283.43 117.296C283.508 117.472 283.629 117.664 283.761 117.808C283.788 117.838 283.813 117.862 283.834 117.881C283.995 117.794 284.338 117.557 284.829 116.958C285.74 115.846 287.381 115.683 288.494 116.594C289.606 117.506 289.769 119.147 288.857 120.259C287.046 122.47 284.755 123.671 282.326 122.903C280.302 122.264 279.159 120.503 278.675 119.423C278.088 118.11 278.676 116.57 279.989 115.982Z" fill="#FFCD83"/>
<path fill-rule="evenodd" clip-rule="evenodd" d="M299.216 100.567C300.529 99.9797 302.069 100.568 302.657 101.881C302.735 102.057 302.856 102.249 302.987 102.392C303.015 102.423 303.04 102.447 303.06 102.466C303.222 102.379 303.564 102.142 304.055 101.543C304.967 100.431 306.608 100.268 307.72 101.179C308.833 102.091 308.996 103.732 308.084 104.844C306.272 107.055 303.982 108.256 301.553 107.488C299.528 106.849 298.386 105.088 297.902 104.008C297.315 102.695 297.903 101.154 299.216 100.567Z" fill="#FFCD83"/>
<path fill-rule="evenodd" clip-rule="evenodd" d="M327.009 101.764C328.322 101.176 329.863 101.765 330.45 103.077C330.529 103.253 330.649 103.446 330.781 103.589C330.809 103.619 330.833 103.643 330.854 103.662C331.015 103.576 331.358 103.339 331.849 102.739C332.76 101.627 334.401 101.464 335.514 102.376C336.626 103.287 336.789 104.928 335.877 106.041C334.066 108.251 331.775 109.452 329.346 108.685C327.322 108.045 326.179 106.285 325.696 105.204C325.108 103.891 325.697 102.351 327.009 101.764Z" fill="#FFCD83"/>
<path fill-rule="evenodd" clip-rule="evenodd" d="M311.694 80.2206C313.007 79.6333 314.547 80.2216 315.135 81.5344C315.213 81.7104 315.334 81.9029 315.465 82.0461C315.493 82.0763 315.517 82.1003 315.538 82.1193C315.7 82.0328 316.042 81.7959 316.533 81.1964C317.445 80.0841 319.086 79.9214 320.198 80.8328C321.311 81.7446 321.473 83.3854 320.562 84.4977C318.75 86.7084 316.46 87.9094 314.03 87.142C312.006 86.5024 310.863 84.742 310.38 83.6612C309.793 82.3482 310.381 80.8078 311.694 80.2206Z" fill="#FFCD83"/>
<path fill-rule="evenodd" clip-rule="evenodd" d="M339.587 79.1011C340.9 78.5138 342.44 79.1021 343.027 80.4149C343.106 80.5909 343.227 80.7831 343.358 80.9263C343.386 80.9566 343.41 80.9808 343.431 80.9995C343.593 80.9133 343.935 80.6763 344.426 80.0769C345.338 78.9644 346.979 78.8016 348.091 79.7133C349.203 80.625 349.366 82.2657 348.455 83.3782C346.643 85.5888 344.353 86.7899 341.923 86.0224C339.899 85.3829 338.756 83.6224 338.273 82.5417C337.686 81.2287 338.274 79.6883 339.587 79.1011Z" fill="#FFCD83"/>
<path fill-rule="evenodd" clip-rule="evenodd" d="M349.971 107.393C351.284 106.806 352.824 107.394 353.411 108.707C353.49 108.883 353.611 109.075 353.742 109.218C353.77 109.248 353.795 109.272 353.815 109.291C353.977 109.205 354.319 108.968 354.81 108.369C355.722 107.256 357.363 107.093 358.475 108.005C359.588 108.917 359.75 110.557 358.839 111.67C357.027 113.881 354.737 115.082 352.308 114.314C350.283 113.675 349.141 111.914 348.657 110.833C348.07 109.52 348.658 107.98 349.971 107.393Z" fill="#FFCD83"/>
<path fill-rule="evenodd" clip-rule="evenodd" d="M341.727 137.203C343.039 136.616 344.58 137.204 345.167 138.517C345.246 138.693 345.366 138.885 345.498 139.029C345.525 139.059 345.55 139.083 345.571 139.102C345.732 139.016 346.075 138.779 346.566 138.179C347.478 137.067 349.118 136.904 350.231 137.816C351.343 138.727 351.506 140.368 350.594 141.48C348.783 143.691 346.492 144.892 344.063 144.125C342.039 143.485 340.896 141.725 340.413 140.644C339.825 139.331 340.413 137.791 341.727 137.203Z" fill="#FFCD83"/>
<path fill-rule="evenodd" clip-rule="evenodd" d="M315.95 143.054C317.263 142.467 318.804 143.055 319.391 144.368C319.47 144.544 319.59 144.736 319.722 144.88C319.749 144.91 319.774 144.934 319.795 144.953C319.956 144.867 320.298 144.63 320.79 144.03C321.701 142.918 323.342 142.755 324.454 143.667C325.567 144.578 325.73 146.219 324.818 147.332C323.006 149.542 320.716 150.743 318.287 149.976C316.262 149.336 315.12 147.576 314.636 146.495C314.049 145.182 314.637 143.642 315.95 143.054Z" fill="#FFCD83"/>
<path fill-rule="evenodd" clip-rule="evenodd" d="M281.308 139.243C282.621 138.656 284.162 139.244 284.749 140.557C284.828 140.733 284.948 140.925 285.08 141.068C285.108 141.098 285.132 141.122 285.153 141.141C285.314 141.055 285.656 140.818 286.148 140.219C287.059 139.106 288.7 138.944 289.812 139.855C290.925 140.767 291.088 142.408 290.176 143.52C288.365 145.731 286.074 146.932 283.645 146.164C281.621 145.525 280.478 143.764 279.995 142.683C279.407 141.371 279.996 139.83 281.308 139.243Z" fill="#FFCD83"/>
<path fill-rule="evenodd" clip-rule="evenodd" d="M306.087 156.552C307.4 155.965 308.941 156.553 309.528 157.866C309.607 158.042 309.728 158.234 309.859 158.378C309.887 158.408 309.911 158.432 309.932 158.451C310.093 158.364 310.436 158.127 310.927 157.528C311.838 156.416 313.479 156.253 314.592 157.164C315.704 158.076 315.867 159.717 314.955 160.829C313.144 163.04 310.853 164.241 308.424 163.473C306.4 162.834 305.257 161.073 304.774 159.993C304.186 158.68 304.775 157.139 306.087 156.552Z" fill="#FFCD83"/>
<path fill-rule="evenodd" clip-rule="evenodd" d="M290.65 83.9552C291.962 83.368 293.503 83.9563 294.09 85.269C294.169 85.4451 294.29 85.6372 294.421 85.7807C294.449 85.8109 294.473 85.8349 294.494 85.8539C294.655 85.7674 294.998 85.5305 295.489 84.931C296.4 83.8188 298.041 83.6557 299.154 84.5674C300.266 85.4792 300.429 87.1198 299.517 88.2323C297.706 90.443 295.415 91.644 292.986 90.8766C290.962 90.237 289.819 88.4766 289.336 87.3958C288.748 86.0828 289.337 84.5424 290.65 83.9552Z" fill="#FFCD83"/>
<path fill-rule="evenodd" clip-rule="evenodd" d="M285.036 80.5003C286.549 82.9474 285.791 86.1568 283.343 87.6688C281.992 88.5039 280.962 89.5076 280.183 90.6844C278.595 93.0826 275.363 93.7394 272.965 92.1513C270.567 90.5631 269.91 87.3313 271.498 84.9331C273.149 82.4396 275.297 80.3961 277.868 78.8073C280.315 77.2953 283.524 78.0534 285.036 80.5003Z" fill="white"/>
<path d="M120.292 119.531C120.292 151.892 94.6414 178.125 63 178.125C31.3586 178.125 5.70834 151.892 5.70834 119.531C5.70834 87.1708 31.3586 21.875 63 21.875C94.6414 21.875 120.292 87.1708 120.292 119.531Z" fill="#F2EB76"/>
<path fill-rule="evenodd" clip-rule="evenodd" d="M125.5 119.531C125.5 154.657 97.6276 183.333 63 183.333C28.3724 183.333 0.5 154.657 0.5 119.531C0.5 102.33 7.20938 77.1044 17.8471 56.2055C23.1875 45.7133 29.6714 36.0011 37.0792 28.8388C44.4581 21.7044 53.224 16.6667 63 16.6667C72.776 16.6667 81.5419 21.7044 88.9208 28.8388C96.3287 36.0011 102.812 45.7133 108.153 56.2055C118.791 77.1044 125.5 102.33 125.5 119.531ZM63 178.125C94.6414 178.125 120.292 151.892 120.292 119.531C120.292 87.1709 94.6414 21.875 63 21.875C31.3586 21.875 5.70834 87.1709 5.70834 119.531C5.70834 151.892 31.3586 178.125 63 178.125Z" fill="#538642"/>
<path fill-rule="evenodd" clip-rule="evenodd" d="M63 178.125C94.6414 178.125 120.292 151.892 120.292 119.531C120.292 87.1708 94.6414 21.875 63 21.875C31.3586 21.875 5.70834 87.1708 5.70834 119.531C5.70834 151.892 31.3586 178.125 63 178.125ZM63 172.917C91.7648 172.917 115.083 148.87 115.083 119.206C115.083 89.5419 91.7648 29.6875 63 29.6875C34.2352 29.6875 10.9167 89.5419 10.9167 119.206C10.9167 148.87 34.2352 172.917 63 172.917Z" fill="#D9DE2E"/>
<path d="M103.267 150.341C101.254 152.544 97.8362 152.697 95.6339 150.684C93.4313 148.67 93.2779 145.253 95.2912 143.051C97.3042 140.848 100.722 140.695 102.924 142.708C105.127 144.721 105.28 148.139 103.267 150.341Z" fill="#C4CB29"/>
<path d="M82.4336 168.57C80.4203 170.773 77.0029 170.926 74.8005 168.913C72.5979 166.899 72.4445 163.482 74.4578 161.28C76.4708 159.077 79.8883 158.924 82.0909 160.937C84.2935 162.95 84.4469 166.368 82.4336 168.57Z" fill="#C4CB29"/>
<path d="M22.5378 139.924C20.5245 142.127 17.107 142.28 14.9047 140.267C12.7021 138.254 12.5487 134.836 14.562 132.634C16.575 130.431 19.9925 130.278 22.1951 132.291C24.3977 134.304 24.5511 137.722 22.5378 139.924Z" fill="#C4CB29"/>
<path d="M94.5878 162.597C93.1758 164.142 90.7792 164.25 89.2344 162.838C87.6898 161.426 87.582 159.029 88.994 157.484C90.406 155.94 92.8029 155.832 94.3474 157.244C95.8922 158.656 95.9997 161.053 94.5878 162.597Z" fill="#C4CB29"/>
<path d="M68.5461 173.014C67.1341 174.559 64.7372 174.666 63.1927 173.254C61.6479 171.842 61.5404 169.446 62.9523 167.901C64.3643 166.356 66.7609 166.249 68.3057 167.661C69.8503 169.073 69.9578 171.469 68.5461 173.014Z" fill="#C4CB29"/>
<path d="M26.8794 149.577C25.4675 151.121 23.0706 151.229 21.5261 149.817C19.9813 148.405 19.8737 146.008 21.2857 144.464C22.6977 142.919 25.0943 142.811 26.6391 144.223C28.1836 145.635 28.2912 148.032 26.8794 149.577Z" fill="#C4CB29"/>
<path d="M21.6711 123.535C20.2591 125.079 17.8622 125.187 16.3177 123.775C14.7729 122.363 14.6654 119.966 16.0773 118.422C17.4893 116.877 19.8859 116.77 21.4307 118.182C22.9753 119.594 23.0828 121.99 21.6711 123.535Z" fill="#C4CB29"/>
<path d="M112.817 139.16C111.405 140.704 109.008 140.812 107.464 139.4C105.919 137.988 105.811 135.591 107.223 134.047C108.635 132.502 111.032 132.395 112.577 133.807C114.121 135.219 114.229 137.615 112.817 139.16Z" fill="#C4CB29"/>
<path d="M99.4583 120.833C99.4583 140.969 83.1354 157.292 63 157.292C42.8646 157.292 26.5417 140.969 26.5417 120.833C26.5417 100.698 42.8646 84.375 63 84.375C83.1354 84.375 99.4583 100.698 99.4583 120.833Z" fill="#BAC73A"/>
<path d="M86.4375 120.833C86.4375 133.778 75.9443 144.271 63 144.271C50.0557 144.271 39.5625 133.778 39.5625 120.833C39.5625 107.889 50.0557 97.3959 63 97.3959C75.9443 97.3959 86.4375 107.889 86.4375 120.833Z" fill="#B6472C"/>
<path fill-rule="evenodd" clip-rule="evenodd" d="M91.6458 120.833C91.6458 136.654 78.8206 149.479 63 149.479C47.1794 149.479 34.3542 136.654 34.3542 120.833C34.3542 105.013 47.1794 92.1875 63 92.1875C78.8206 92.1875 91.6458 105.013 91.6458 120.833ZM63 144.271C75.9443 144.271 86.4375 133.778 86.4375 120.833C86.4375 107.889 75.9443 97.3958 63 97.3958C50.0557 97.3958 39.5625 107.889 39.5625 120.833C39.5625 133.778 50.0557 144.271 63 144.271Z" fill="#662513"/>
<path fill-rule="evenodd" clip-rule="evenodd" d="M60.3958 136.458C73.3401 136.458 83.8333 125.965 83.8333 113.021C83.8333 111.868 83.75 110.734 83.5893 109.626C85.4055 112.955 86.4375 116.774 86.4375 120.833C86.4375 133.777 75.9443 144.271 63 144.271C51.2089 144.271 41.4513 135.564 39.8065 124.228C43.7813 131.515 51.5112 136.458 60.3958 136.458Z" fill="#A43E25"/>
<path d="M57.7917 113.021C57.7917 115.897 55.4599 118.229 52.5833 118.229C49.7068 118.229 47.375 115.897 47.375 113.021C47.375 110.144 49.7068 107.812 52.5833 107.812C55.4599 107.812 57.7917 110.144 57.7917 113.021Z" fill="#F5A05F"/>
<path d="M60.5708 38.0755C64.6701 42.4943 62.6203 51.0612 55.9925 57.2104C49.3643 63.3597 40.668 64.7625 36.5685 60.3438C32.469 55.925 34.519 47.3581 41.1469 41.2089C47.775 35.0597 56.4714 33.6568 60.5708 38.0755Z" fill="#FFFAA3"/>
<path fill-rule="evenodd" clip-rule="evenodd" d="M48.5377 53.8071C50.987 52.4935 51.983 49.4683 50.7588 46.9451C49.5031 44.3571 46.3872 43.2771 43.7992 44.5328C43.0315 44.9055 42.1719 45.3636 41.419 45.9766C40.4539 46.762 39.845 47.6453 39.444 48.5612C39.3219 48.8399 39.2018 49.1735 39.1969 49.187V49.1873C39.194 49.1951 39.1914 49.2019 39.1893 49.2076C39.1625 49.2485 39.1042 49.3321 38.9958 49.4641C37.1724 51.6886 37.4976 54.9703 39.7221 56.7938C41.9469 58.6175 45.2284 58.2922 47.0521 56.0677C47.7088 55.2662 48.182 54.5297 48.5377 53.8071Z" fill="white"/>
</svg>
