<svg width="375" height="374" viewBox="0 0 375 374" fill="none" xmlns="http://www.w3.org/2000/svg">
<path d="M368.809 49.8628C371.603 37.5569 370.77 24.7046 366.409 12.8628C364.738 8.89962 362.814 5.04829 360.649 1.33281C351.293 -0.61963 341.617 -0.424741 332.349 1.90281C331.429 2.15281 330.519 2.41281 329.619 2.70281C328.719 2.99281 327.829 3.06281 326.949 3.29281C316.481 5.96163 306.9 11.3384 299.169 18.8828C290.127 30.229 285.657 44.5477 286.639 59.0228C284.965 53.2818 283.997 47.3581 283.759 41.3828C274.651 61.4656 273.343 84.2186 280.089 105.213C283.919 117.213 298.789 159.553 302.039 176.653C287.339 128.333 257.389 104.923 204.829 99.0528C171.829 95.3628 135.099 110.663 112.389 131.943C120.21 129.711 128.315 128.626 136.449 128.723C115.726 134.627 97.9547 148.058 86.6185 166.383C80.4672 178.514 76.3267 191.564 74.3586 205.023C77.0763 201.281 80.0857 197.76 83.3586 194.493C77.8919 204.323 74.3104 215.087 72.7985 226.233C72.7985 226.663 72.7285 227.103 72.7085 227.543C72.024 243.017 74.3259 258.479 79.4885 273.083C84.9914 274.902 90.6334 276.27 96.3586 277.173C113.923 278.68 131.481 274.193 146.169 264.443C142.295 268.973 137.935 273.064 133.169 276.643C137.03 275.91 140.847 274.955 144.599 273.783C144.989 273.623 145.359 273.483 145.739 273.303C166.241 263.712 182.311 246.659 190.669 225.623C189.754 233.875 187.736 241.968 184.669 249.683C201.671 230.877 212.169 207.098 214.609 181.863C215.919 189.484 216.508 197.211 216.369 204.943C220.855 192.989 223.414 180.399 223.949 167.643C224.379 157.833 223.889 142.873 218.849 131.243C157.109 116.803 116.849 177.073 105.109 212.503C117.169 170.713 149.269 119.253 209.969 118.133C249.379 117.403 273.969 148.773 284.969 177.333C291.769 195.003 310.609 262.083 243.089 308.023C204.009 334.623 154.089 344.123 107.449 326.683C68.7485 312.463 38.1685 281.253 24.0885 241.513C23.6085 239.993 23.0885 238.513 22.6785 236.943C0.538546 158.383 42.4785 75.7128 117.819 49.5728C115.769 50.1028 113.719 50.5728 111.669 51.2328C27.2385 79.0428 -19.3315 172.063 7.66855 259.003C34.6685 345.943 125.049 393.863 209.479 366.053C254.869 351.113 291.479 316.173 309.349 270.703C326.769 226.063 317.909 183.703 302.049 143.023C291.989 117.163 281.449 73.1028 336.349 30.4928C319.459 46.1828 290.449 76.7028 303.049 119.683C311.11 119.505 319.132 118.5 326.989 116.683C334.424 114.777 341.412 111.431 347.559 106.833C342.965 107.87 338.267 108.373 333.559 108.333C348.355 103.312 360.622 92.7382 367.769 78.8428C363.845 81.9743 359.428 84.4312 354.699 86.1128C360.283 81.4523 364.869 75.7114 368.181 69.2347C371.492 62.7581 373.461 55.6791 373.969 48.4228C373.969 48.1428 373.969 47.8628 374.029 47.5728C373.969 44.7628 373.769 41.8928 373.439 39.0228C372.312 42.8002 370.758 46.437 368.809 49.8628V49.8628Z" fill="url(#paint0_linear)"/>
<defs>
<linearGradient id="paint0_linear" x1="0.0627462" y1="188.955" x2="374.018" y2="188.955" gradientUnits="userSpaceOnUse">
<stop stop-color="#7BE495"/>
<stop offset="0.5" stop-color="#56C596"/>
<stop offset="1" stop-color="#329D9C"/>
</linearGradient>
</defs>
</svg>
